<?xml version="1.0" encoding="utf-8"?>
<!-- Generator: Adobe Illustrator 15.0.0, SVG Export Plug-In . SVG Version: 6.00 Build 0)  -->
<!DOCTYPE svg PUBLIC "-//W3C//DTD SVG 1.1//EN" "http://www.w3.org/Graphics/SVG/1.1/DTD/svg11.dtd">
<svg version="1.1" id="Layer_1" xmlns="http://www.w3.org/2000/svg" xmlns:xlink="http://www.w3.org/1999/xlink" x="0px" y="0px"
	 width="280px" height="140px" viewBox="0 0 280 140" style="enable-background:new 0 0 280 140;" xml:space="preserve">
<style type="text/css">
<![CDATA[
	.st0{fill:#535353;}
	.st1{opacity:0.5;}
	.st2{fill:#0868AC;}
]]>
</style>
<g>
	<g>
		<path class="st2" d="M37.81,52.32c-6.67,9.36-5.99,21.65-1.09,31.73c0.12,0.24,0.24,0.48,0.36,0.72c0.08,0.15,0.15,0.31,0.23,0.46
			c0.04,0.09,0.09,0.17,0.15,0.26c0.07,0.16,0.16,0.31,0.25,0.47c0.15,0.28,0.31,0.56,0.47,0.83c0.08,0.15,0.17,0.3,0.26,0.45
			c0.18,0.29,0.36,0.58,0.54,0.87c0.08,0.13,0.16,0.25,0.24,0.37c0.25,0.39,0.51,0.78,0.79,1.17c0,0.01,0.02,0.02,0.02,0.03
			c0.04,0.06,0.09,0.12,0.13,0.18c0.24,0.33,0.48,0.66,0.72,0.98c0.1,0.12,0.18,0.23,0.27,0.35c0.22,0.28,0.44,0.56,0.67,0.84
			c0.08,0.1,0.17,0.21,0.26,0.31c0.3,0.37,0.61,0.73,0.94,1.09c0,0.01,0.01,0.01,0.01,0.02c0.01,0.02,0.03,0.03,0.03,0.04
			c0.31,0.34,0.63,0.68,0.95,1.02c0.1,0.1,0.21,0.21,0.31,0.31c0.25,0.26,0.5,0.51,0.76,0.76c0.11,0.1,0.21,0.2,0.31,0.3
			c0.34,0.33,0.68,0.65,1.04,0.97c0.01,0.01,0.01,0.01,0.02,0.02c0.06,0.05,0.12,0.1,0.17,0.15c0.31,0.28,0.63,0.55,0.95,0.82
			c0.12,0.11,0.25,0.21,0.39,0.32c0.26,0.21,0.52,0.42,0.79,0.63c0.13,0.11,0.27,0.22,0.41,0.33c0.29,0.22,0.6,0.43,0.89,0.65
			c0.11,0.08,0.21,0.16,0.31,0.24c0.03,0.02,0.06,0.04,0.09,0.06c0.28,0.2,0.57,0.39,0.86,0.58c0.13,0.08,0.25,0.17,0.37,0.25
			c0.44,0.29,0.89,0.57,1.35,0.85c0.12,0.07,0.24,0.14,0.37,0.22c0.33,0.2,0.67,0.39,1.01,0.58c0.19,0.1,0.38,0.2,0.55,0.3
			c0.25,0.13,0.48,0.26,0.73,0.39c0.05,0.03,0.11,0.05,0.17,0.08c0.09,0.05,0.19,0.1,0.29,0.15c0.38,0.19,0.76,0.37,1.14,0.55
			c0.08,0.04,0.16,0.08,0.25,0.11c0.44,0.2,0.89,0.39,1.34,0.58c0.11,0.05,0.22,0.09,0.33,0.13c0.42,0.17,0.85,0.33,1.26,0.49
			c0.06,0.02,0.11,0.04,0.16,0.06c0.47,0.17,0.94,0.33,1.41,0.48c0.11,0.03,0.22,0.07,0.34,0.1c0.48,0.15,0.95,0.33,1.45,0.43
			c31.69,6.16,41.2-18.61,41.2-18.61c-7.86,10-21.64,12.51-34.63,9.4c-0.49-0.12-0.97-0.28-1.45-0.43
			c-0.12-0.04-0.24-0.08-0.36-0.11c-0.46-0.15-0.93-0.31-1.39-0.47c-0.06-0.02-0.13-0.04-0.19-0.07c-0.41-0.15-0.82-0.31-1.23-0.47
			c-0.12-0.05-0.22-0.09-0.34-0.14c-0.45-0.18-0.89-0.37-1.32-0.57c-0.1-0.04-0.18-0.08-0.27-0.12c-0.38-0.18-0.75-0.35-1.12-0.54
			c-0.11-0.05-0.22-0.1-0.33-0.16c-0.29-0.15-0.58-0.31-0.87-0.46c-0.19-0.11-0.38-0.2-0.57-0.31c-0.35-0.19-0.69-0.39-1.04-0.59
			c-0.11-0.07-0.23-0.13-0.34-0.2c-0.46-0.27-0.91-0.56-1.36-0.84c-0.12-0.08-0.24-0.17-0.36-0.25c-0.32-0.21-0.64-0.43-0.96-0.65
			c-0.11-0.07-0.21-0.15-0.3-0.22c-0.31-0.22-0.61-0.45-0.91-0.67c-0.14-0.1-0.27-0.2-0.4-0.31c-0.28-0.22-0.55-0.44-0.81-0.66
			c-0.12-0.1-0.25-0.2-0.37-0.3c-0.34-0.29-0.68-0.58-1.02-0.88c-0.03-0.03-0.07-0.06-0.11-0.1c-0.36-0.33-0.71-0.66-1.07-0.99
			c-0.1-0.1-0.2-0.2-0.3-0.3c-0.26-0.25-0.52-0.51-0.76-0.77c-0.11-0.1-0.21-0.2-0.31-0.31c-0.31-0.33-0.63-0.67-0.94-1.01
			c-0.02-0.02-0.03-0.03-0.04-0.05c-0.33-0.36-0.64-0.73-0.95-1.11c-0.09-0.1-0.17-0.2-0.26-0.3c-0.22-0.29-0.45-0.58-0.68-0.87
			c-0.09-0.1-0.17-0.21-0.25-0.32c-0.28-0.36-0.54-0.71-0.79-1.08c-7.12-9.95-9.56-23.59-3.66-34.69"/>
		<path class="st2" d="M58.29,44.6c-4.83,6.78-4.68,15.93-1.06,23.2c0.61,1.22,1.29,2.4,2.06,3.53c0.7,1.03,1.47,2.25,2.42,3.08
			c0.34,0.38,0.68,0.75,1.04,1.12c0.1,0.09,0.18,0.18,0.28,0.28c0.35,0.35,0.71,0.69,1.08,1.03c0.02,0.01,0.03,0.03,0.04,0.04
			c0.01,0,0.01,0.01,0.01,0.01c0.4,0.37,0.83,0.72,1.25,1.07c0.1,0.07,0.2,0.15,0.29,0.23c0.43,0.33,0.87,0.67,1.32,0.98
			c0.01,0.01,0.03,0.02,0.04,0.03c0.2,0.14,0.4,0.28,0.6,0.41c0.1,0.06,0.19,0.13,0.29,0.19c0.32,0.21,0.65,0.42,0.98,0.61
			c0.05,0.03,0.09,0.06,0.14,0.08c0.29,0.17,0.58,0.33,0.86,0.5c0.1,0.06,0.21,0.11,0.31,0.16c0.2,0.11,0.4,0.22,0.6,0.32
			c0.03,0.02,0.06,0.03,0.09,0.04c0.42,0.21,0.84,0.42,1.26,0.61c0.09,0.04,0.19,0.08,0.28,0.12c0.34,0.15,0.69,0.29,1.04,0.43
			c0.15,0.06,0.3,0.12,0.44,0.17c0.31,0.12,0.63,0.23,0.96,0.34c0.14,0.05,0.28,0.1,0.43,0.14c0.45,0.15,0.9,0.33,1.38,0.42
			c24.47,4.34,30.34-14.47,30.34-14.47c-5.19,7.29-15.1,10.68-25.62,7.82c-0.46-0.13-0.92-0.27-1.38-0.42
			c-0.14-0.04-0.28-0.09-0.42-0.14c-0.32-0.11-0.65-0.23-0.96-0.34c-0.15-0.06-0.29-0.11-0.43-0.17c-0.35-0.13-0.7-0.28-1.04-0.43
			c-0.09-0.04-0.19-0.08-0.28-0.12c-0.43-0.19-0.86-0.4-1.27-0.61c-0.22-0.1-0.43-0.22-0.65-0.33c-0.12-0.06-0.24-0.13-0.36-0.2
			c-0.28-0.15-0.54-0.31-0.81-0.46c-0.06-0.04-0.13-0.08-0.19-0.11c-0.33-0.2-0.66-0.4-0.98-0.61c-0.09-0.06-0.19-0.13-0.29-0.2
			c-0.22-0.14-0.43-0.29-0.63-0.43c-0.45-0.31-0.89-0.65-1.31-0.98c-0.1-0.08-0.2-0.16-0.3-0.24c-4.57-3.7-8.17-8.72-9.85-14.38
			c-1.76-5.88-1.29-12.44,1.94-17.74"/>
		<path class="st2" d="M75.1,38.8c-2.8,4.12-3.07,9.23-1.13,13.78c2.05,4.83,6.24,8.62,11.14,10.42c0.2,0.07,0.4,0.14,0.61,0.21
			c0.09,0.03,0.18,0.06,0.26,0.09c0.29,0.09,0.58,0.2,0.88,0.25c13.54,2.62,17.21-6.95,18.18-8.35c-3.21,4.63-8.62,5.74-15.25,4.13
			c-0.52-0.13-1.1-0.31-1.6-0.49c-0.64-0.23-1.28-0.49-1.91-0.79c-1.18-0.56-2.3-1.25-3.34-2.04c-5.94-4.5-9.62-13.09-5.75-20.09"/>
	</g>
</g>
<g class="st1">
	<g>
		<path class="st0" d="M177.81,52.32c-6.67,9.36-5.99,21.65-1.09,31.73c0.12,0.24,0.24,0.48,0.36,0.72
			c0.08,0.15,0.15,0.31,0.23,0.46c0.04,0.09,0.1,0.17,0.15,0.26c0.07,0.16,0.16,0.31,0.25,0.47c0.15,0.28,0.31,0.56,0.47,0.83
			c0.08,0.15,0.17,0.3,0.26,0.45c0.18,0.29,0.37,0.58,0.54,0.87c0.08,0.13,0.16,0.25,0.24,0.37c0.25,0.39,0.51,0.78,0.79,1.17
			c0,0.01,0.02,0.02,0.02,0.03c0.04,0.06,0.09,0.12,0.13,0.18c0.24,0.33,0.48,0.66,0.72,0.98c0.1,0.12,0.18,0.23,0.27,0.35
			c0.22,0.28,0.44,0.56,0.67,0.84c0.08,0.1,0.17,0.21,0.26,0.31c0.3,0.37,0.61,0.73,0.94,1.09c0,0.01,0.01,0.01,0.01,0.02
			c0.01,0.02,0.03,0.03,0.04,0.04c0.31,0.34,0.63,0.68,0.95,1.02c0.1,0.1,0.21,0.21,0.31,0.31c0.25,0.26,0.5,0.51,0.76,0.76
			c0.11,0.1,0.21,0.2,0.31,0.3c0.34,0.33,0.69,0.65,1.04,0.97c0.01,0.01,0.01,0.01,0.02,0.02c0.06,0.05,0.12,0.1,0.17,0.15
			c0.31,0.28,0.63,0.55,0.96,0.82c0.12,0.11,0.25,0.21,0.39,0.32c0.26,0.21,0.52,0.42,0.79,0.63c0.13,0.11,0.27,0.22,0.41,0.33
			c0.29,0.22,0.6,0.43,0.89,0.65c0.11,0.08,0.21,0.16,0.31,0.24c0.03,0.02,0.06,0.04,0.09,0.06c0.28,0.2,0.57,0.39,0.86,0.58
			c0.13,0.08,0.25,0.17,0.37,0.25c0.44,0.29,0.89,0.57,1.35,0.85c0.12,0.07,0.24,0.14,0.37,0.22c0.33,0.2,0.67,0.39,1.01,0.58
			c0.19,0.1,0.38,0.2,0.55,0.3c0.25,0.13,0.48,0.26,0.73,0.39c0.05,0.03,0.11,0.05,0.17,0.08c0.09,0.05,0.19,0.1,0.29,0.15
			c0.38,0.19,0.76,0.37,1.14,0.55c0.08,0.04,0.16,0.08,0.25,0.11c0.44,0.2,0.89,0.39,1.34,0.58c0.11,0.05,0.22,0.09,0.33,0.13
			c0.42,0.17,0.85,0.33,1.26,0.49c0.06,0.02,0.11,0.04,0.16,0.06c0.47,0.17,0.94,0.33,1.41,0.48c0.11,0.03,0.22,0.07,0.34,0.1
			c0.48,0.15,0.95,0.33,1.45,0.43c31.69,6.16,41.2-18.61,41.2-18.61c-7.86,10-21.64,12.51-34.63,9.4c-0.49-0.12-0.97-0.28-1.45-0.43
			c-0.12-0.04-0.24-0.08-0.36-0.11c-0.46-0.15-0.93-0.31-1.39-0.47c-0.06-0.02-0.13-0.04-0.19-0.07c-0.41-0.15-0.82-0.31-1.23-0.47
			c-0.12-0.05-0.22-0.09-0.34-0.14c-0.45-0.18-0.89-0.37-1.32-0.57c-0.1-0.04-0.18-0.08-0.27-0.12c-0.38-0.18-0.75-0.35-1.12-0.54
			c-0.11-0.05-0.22-0.1-0.33-0.16c-0.29-0.15-0.58-0.31-0.87-0.46c-0.19-0.11-0.38-0.2-0.57-0.31c-0.35-0.19-0.69-0.39-1.04-0.59
			c-0.11-0.07-0.23-0.13-0.34-0.2c-0.46-0.27-0.91-0.56-1.36-0.84c-0.12-0.08-0.24-0.17-0.36-0.25c-0.32-0.21-0.64-0.43-0.96-0.65
			c-0.11-0.07-0.21-0.15-0.3-0.22c-0.31-0.22-0.61-0.45-0.91-0.67c-0.14-0.1-0.27-0.2-0.4-0.31c-0.28-0.22-0.55-0.44-0.81-0.66
			c-0.12-0.1-0.25-0.2-0.37-0.3c-0.34-0.29-0.68-0.58-1.02-0.88c-0.03-0.03-0.07-0.06-0.11-0.1c-0.36-0.33-0.71-0.66-1.07-0.99
			c-0.1-0.1-0.2-0.2-0.3-0.3c-0.26-0.25-0.52-0.51-0.76-0.77c-0.11-0.1-0.21-0.2-0.31-0.31c-0.31-0.33-0.63-0.67-0.94-1.01
			c-0.02-0.02-0.04-0.03-0.04-0.05c-0.33-0.36-0.64-0.73-0.95-1.11c-0.09-0.1-0.17-0.2-0.26-0.3c-0.22-0.29-0.45-0.58-0.68-0.87
			c-0.09-0.1-0.17-0.21-0.25-0.32c-0.28-0.36-0.54-0.71-0.79-1.08c-7.12-9.95-9.56-23.59-3.66-34.69"/>
		<path class="st0" d="M198.29,44.6c-4.83,6.78-4.68,15.93-1.06,23.2c0.61,1.22,1.29,2.4,2.06,3.53c0.7,1.03,1.47,2.25,2.42,3.08
			c0.34,0.38,0.68,0.75,1.04,1.12c0.1,0.09,0.18,0.18,0.28,0.28c0.35,0.35,0.71,0.69,1.08,1.03c0.02,0.01,0.03,0.03,0.04,0.04
			c0.01,0,0.01,0.01,0.01,0.01c0.4,0.37,0.83,0.72,1.25,1.07c0.1,0.07,0.2,0.15,0.29,0.23c0.43,0.33,0.87,0.67,1.32,0.98
			c0.01,0.01,0.03,0.02,0.04,0.03c0.2,0.14,0.4,0.28,0.6,0.41c0.1,0.06,0.19,0.13,0.29,0.19c0.32,0.21,0.65,0.42,0.98,0.61
			c0.05,0.03,0.09,0.06,0.14,0.08c0.29,0.17,0.58,0.33,0.87,0.5c0.1,0.06,0.21,0.11,0.31,0.16c0.2,0.11,0.4,0.22,0.6,0.32
			c0.03,0.02,0.06,0.03,0.09,0.04c0.42,0.21,0.84,0.42,1.26,0.61c0.09,0.04,0.19,0.08,0.28,0.12c0.34,0.15,0.69,0.29,1.04,0.43
			c0.15,0.06,0.3,0.12,0.44,0.17c0.31,0.12,0.63,0.23,0.96,0.34c0.14,0.05,0.28,0.1,0.43,0.14c0.45,0.15,0.9,0.33,1.38,0.42
			c24.47,4.34,30.34-14.47,30.34-14.47c-5.19,7.29-15.1,10.68-25.62,7.82c-0.46-0.13-0.93-0.27-1.38-0.42
			c-0.14-0.04-0.28-0.09-0.42-0.14c-0.32-0.11-0.64-0.23-0.96-0.34c-0.15-0.06-0.29-0.11-0.43-0.17c-0.35-0.13-0.7-0.28-1.04-0.43
			c-0.1-0.04-0.19-0.08-0.28-0.12c-0.43-0.19-0.86-0.4-1.27-0.61c-0.22-0.1-0.43-0.22-0.65-0.33c-0.12-0.06-0.24-0.13-0.36-0.2
			c-0.28-0.15-0.54-0.31-0.81-0.46c-0.06-0.04-0.13-0.08-0.19-0.11c-0.33-0.2-0.66-0.4-0.98-0.61c-0.09-0.06-0.19-0.13-0.29-0.2
			c-0.22-0.14-0.43-0.29-0.63-0.43c-0.45-0.31-0.89-0.65-1.31-0.98c-0.1-0.08-0.2-0.16-0.3-0.24c-4.57-3.7-8.17-8.72-9.85-14.38
			c-1.76-5.88-1.29-12.44,1.94-17.74"/>
		<path class="st0" d="M215.1,38.8c-2.8,4.12-3.07,9.23-1.13,13.78c2.05,4.83,6.24,8.62,11.14,10.42c0.2,0.07,0.4,0.14,0.61,0.21
			c0.09,0.03,0.18,0.06,0.26,0.09c0.29,0.09,0.58,0.2,0.88,0.25c13.54,2.62,17.21-6.95,18.18-8.35c-3.21,4.63-8.62,5.74-15.25,4.13
			c-0.52-0.13-1.1-0.31-1.6-0.49c-0.64-0.23-1.28-0.49-1.91-0.79c-1.18-0.56-2.3-1.25-3.34-2.04c-5.94-4.5-9.62-13.09-5.75-20.09"/>
	</g>
</g>
</svg>
