<?xml version="1.0" encoding="utf-8"?>
<!-- Generator: Adobe Illustrator 16.0.0, SVG Export Plug-In . SVG Version: 6.00 Build 0)  -->
<!DOCTYPE svg PUBLIC "-//W3C//DTD SVG 1.1//EN" "http://www.w3.org/Graphics/SVG/1.1/DTD/svg11.dtd">
<svg version="1.1" id="Ebene_1" xmlns="http://www.w3.org/2000/svg" xmlns:xlink="http://www.w3.org/1999/xlink" x="0px" y="0px"
	 width="459.5px" height="182.167px" viewBox="0 0 459.5 182.167" enable-background="new 0 0 459.5 182.167" xml:space="preserve">
<path fill="#414652" d="M107.546,3.03c-12.806,0.731-21.847,2.795-34.908,7.983c-17.536,6.978-32.405,15.49-44.369,25.446
	c-3.197,2.648-9.992,9.498-12.258,12.311C9.107,57.429,5.38,65.266,4.614,72.736c-0.274,2.612,0.036,4.896,1.077,8.001
	c3.105,9.279,11.07,18.156,25.592,28.514c1.352,0.969,4.804,3.38,7.672,5.371c5.718,3.964,7.983,5.607,10.029,7.269
	c1.589,1.298,1.717,1.061-1.535,2.723c-8.714,4.439-17.043,9.772-22.924,14.723c-2.539,2.12-6.503,6.284-7.782,8.166
	c-4.275,6.265-5.736,14.065-3.781,20.276c1.406,4.455,4.402,8.091,7.507,9.041c3.635,1.133,9.754,1.517,13.646,0.841
	c7.873-1.334,14.485-4.73,20.349-10.431c5.243-5.113,8.549-10.759,10.339-17.719c2.119-8.256,1.736-17.115-1.022-23.746
	c-0.311-0.768-0.548-1.407-0.512-1.442c0.219-0.147,6.138-3.582,8.293-4.806c4.147-2.338,4.658-2.63,4.658-2.483
	c0,0.091-0.164,0.676-0.365,1.332c-1.918,6.121-2.978,14.942-2.393,19.729c1.023,8.294,4.676,16.057,8.421,17.865
	c2.301,1.096,5.699,0.986,7.854-0.273c1.151-0.677,2.503-2.101,3.635-3.8c1.224-1.882,4.494-8.512,6.412-13.061
	c0.84-1.954,1.553-3.599,1.607-3.653s0.037,0.365-0.037,0.913c-0.511,3.964-0.401,9.188,0.238,11.727
	c0.949,3.689,2.923,5.627,5.79,5.663c2.302,0.036,4.951-1.826,7.636-5.389c2.502-3.344,11.051-19.563,15.417-29.263
	c1.881-4.184,4.403-10.102,5.736-13.426c0.493-1.261,0.968-2.356,1.041-2.43c0.091-0.091,0.201,0.2,0.274,0.639
	c0.219,1.371,1.735,7.397,2.32,9.134c0.311,0.932,1.48,3.616,2.594,5.955l2.01,4.256l-0.366,0.493
	c-0.201,0.273-0.804,1.114-1.352,1.863c-1.26,1.753-4.274,5.48-9.024,11.125c-5.553,6.648-6.466,8.037-6.484,9.955
	c0,1.698,1.388,3.16,3.434,3.599c1.443,0.292,5.535,0.108,7.708-0.366c5.444-1.169,11.015-3.964,14.212-7.143
	c5.534-5.461,6.412-13.151,2.539-22.285l-0.274-0.639l2.156-3.216c3.489-5.242,6.43-10.284,10.832-18.613
	c0.566-1.06,1.06-1.79,1.096-1.644c0.055,0.146,0.311,1.297,0.584,2.558c1.261,5.809,2.265,8.749,4.567,13.334l1.224,2.429
	l-0.896,0.75c-2.977,2.502-6.265,6.174-8.366,9.335c-2.429,3.652-3.836,7.104-4.311,10.594c-0.604,4.53,1.662,7.581,5.607,7.581
	c1.59,0,5.736-1.369,8.878-2.923c5.096-2.539,9.462-6.558,11.38-10.503c1.042-2.119,1.371-3.545,1.371-5.956
	c0-2.301-0.347-4.273-1.224-6.977c-0.347-1.097-0.603-2.01-0.566-2.047c0.201-0.201,3.69-1.297,5.48-1.734
	c5.735-1.407,13.079-1.571,19.691-0.438c10.741,1.826,18.285,7.416,20.477,15.143c0.585,2.046,0.603,4.785,0.036,6.576
	c-0.877,2.758-2.94,5.261-6.027,7.38c-1.48,0.986-1.7,1.206-1.7,1.644c0,0.767,0.384,0.986,1.517,0.896
	c1.899-0.165,4.786-1.846,7.069-4.147c3.068-3.068,4.402-6.302,4.438-10.612c0.019-5.846-2.375-11.271-7.087-15.983
	c-7.326-7.325-18.889-10.596-31.693-8.933c-4.274,0.548-9.681,2.064-13.243,3.727c-1.243,0.565-1.663,0.676-1.791,0.512
	c-0.511-0.731-3.672-7.398-4.073-8.586c-0.512-1.57-1.169-6.064-1.169-8.22c0-2.795,0.603-5.754,2.101-10.192
	c0.457-1.352,0.822-2.631,0.822-2.868c0-0.657-1.004-1.644-2.064-2.009c-1.315-0.457-6.083-0.457-8.439,0.018
	c-1.791,0.348-3.197,0.877-3.617,1.352c-0.347,0.384-1.461,3.891-1.936,6.102c-0.639,2.94-1.479,5.005-4.293,10.467
	c-2.484,4.858-9.554,17.409-10.138,18.047c-0.164,0.164-2.21-4.018-2.758-5.627c-0.201-0.602-0.493-1.845-0.639-2.738
	c-0.987-6.211-0.731-8.952,1.479-15.654l1.004-3.088l-0.328-0.566c-0.768-1.314-2.941-1.881-6.54-1.734
	c-2.649,0.128-4.037,0.347-5.663,0.876c-1.827,0.584-1.846,0.64-2.74,4.019c-0.438,1.645-0.932,3.398-1.096,3.909
	c-0.603,1.772-5.151,12.165-12.678,28.952c-3.781,8.422-8.348,17.737-9.078,18.523c-0.438,0.475-0.512,0.492-0.676,0.2
	c-0.091-0.183-0.128-1.498-0.073-3.178c0.055-2.285,0.201-3.398,0.657-5.59c0.731-3.343,2.32-9.755,4-15.983
	c1.516-5.626,1.571-5.828,1.315-6.74c-0.347-1.315-2.009-2.484-3.836-2.704c-1.26-0.146-2.045,0.055-3.124,0.804
	c-0.548,0.366-0.913,0.529-0.84,0.366c0.274-0.731,0.53-4.238,0.438-5.974c-0.347-6.156-3.05-9.023-8.238-8.713
	c-3.69,0.2-8.384,2.483-12.896,6.246c-1.754,1.462-5.133,4.951-6.284,6.485c-0.621,0.84-1.188,1.353-1.918,1.753
	c-0.566,0.312-5.791,3.179-11.6,6.376l-10.576,5.791l-2.21-2.175c-3.307-3.27-5.699-5.278-12.677-10.631
	c-7.069-5.425-11.49-9.224-13.974-11.965c-3.982-4.401-6.064-7.909-7.215-12.129c-0.42-1.607-0.476-2.083-0.476-5.151
	c0-2.812,0.074-3.69,0.402-5.242c1.06-4.859,3.544-9.735,7.453-14.668c1.699-2.137,7.033-7.435,9.572-9.499
	c7.8-6.338,16.495-11.8,27.71-17.426c13.042-6.539,24.313-10.193,36.497-11.837c4.128-0.548,13.188-0.603,16.549-0.091
	c7.197,1.078,12.257,3.233,15.436,6.558c1.224,1.26,1.991,2.63,2.63,4.622c0.621,1.936,0.712,5.754,0.201,8.238
	c-1.278,6.192-4.786,12.349-10.394,18.176c-8.256,8.584-19.6,14.998-32.277,18.212c-12.421,3.159-22.048,2.94-29.336-0.694
	c-2.083-1.023-3.562-2.101-5.225-3.781c-1.625-1.645-1.991-1.791-2.704-1.061c-0.566,0.549-0.566,1.097-0.037,2.668
	c0.604,1.735,1.498,3.123,3.143,4.822c1.826,1.881,4,3.47,6.466,4.73c3.233,1.645,5.846,2.411,10.521,3.069
	c2.211,0.311,11.198,0.311,14.066,0c8.42-0.932,17.462-3.27,24.843-6.412c17.462-7.472,31.492-24.386,33.611-40.497
	c0.511-3.983,0.328-8.147-0.566-11.655c-2.886-11.544-15.052-19.417-32.771-21.189C115.327,3.122,109.501,2.921,107.546,3.03z
	 M102.778,101.762c0.402,0.311,0.475,0.511,0.475,1.352c0,2.028-1.077,6.267-3.233,12.678c-1.297,3.927-5.973,16.074-7.618,19.838
	c-2.045,4.676-4.018,7.581-5.151,7.581c-1.735,0-2.867-3.838-2.867-9.682c0-6.649,1.333-12.367,4.365-18.541
	c1.389-2.851,3.197-5.9,4.604-7.764C96.458,103.076,101.043,100.41,102.778,101.762z M178.056,121.728
	c0.237,1.132,0.292,1.99,0.219,3.251c-0.292,5.024-2.722,8.495-7.6,10.888c-1.662,0.804-1.716,0.821-1.973,0.475
	c-0.968-1.279,2.21-8.659,5.389-12.494c0.986-1.205,3.361-3.653,3.525-3.653C177.69,120.193,177.873,120.887,178.056,121.728z
	 M55.449,130.551c0.621,2.831,0.768,4.091,0.749,7.179c0,4.858-0.785,8.201-2.904,12.512c-3.617,7.308-10.394,13.316-17.353,15.362
	c-1.9,0.566-5.334,0.805-6.576,0.458c-2.923-0.786-4.202-3.654-3.508-7.837c1.315-8.02,6.832-14.485,19.673-23.089
	c3.087-2.064,9.133-5.773,9.444-5.792C55.084,129.326,55.303,129.874,55.449,130.551z M146.729,132.213
	c-0.512,3.634-2.886,7.087-6.942,10.064c-2.21,1.645-3.799,2.393-4.366,2.046c-0.183-0.127,0.146-0.584,1.278-1.846
	c4.202-4.657,5.316-5.973,7.325-8.476c1.206-1.479,2.284-2.867,2.394-3.05C146.783,130.349,146.929,130.879,146.729,132.213z"/>
<polygon fill-rule="evenodd" clip-rule="evenodd" fill="#414652" points="363.622,38.433 360.044,56.363 433.007,56.363 
	430.726,67.939 357.717,67.939 354.178,85.866 427.14,85.866 423.07,106.313 393.666,116.055 368.183,106.313 369.924,97.447 
	351.998,97.447 347.736,118.965 389.89,135.103 438.483,118.965 454.519,38.433 "/>
<polygon fill="#E0E0E0" points="315.83,70.193 291.449,70.193 291.449,45.814 276.643,45.814 276.643,70.193 252.262,70.193 
	252.262,85.002 276.643,85.002 276.643,109.382 291.449,109.382 291.449,85.002 315.83,85.002 "/>
</svg>
